<svg width="793" height="646" viewBox="0 0 793 646" fill="none" xmlns="http://www.w3.org/2000/svg">
<path d="M62.385 352.002C109.937 363.89 155.803 390.062 205.809 385.895C224.958 395.469 220.632 429.93 232.492 444.426C236.768 449.653 237.391 460.828 240.239 467.236C242.653 472.667 243.094 478.488 245.511 483.806C247.582 488.362 246.003 493.513 247.986 498.224C249.607 502.073 251.2 506.617 252.29 510.705C255.205 521.636 261.187 531.722 263.48 542.768C267.081 560.12 286.417 634.631 304.473 613.565C311.143 605.784 310.391 582.25 310.391 572.249C310.391 552.018 308.454 531.507 308.454 511.673C308.454 492.459 307.749 474.611 314.264 456.692C315.914 452.156 320.171 441.617 325.024 440.23C335.02 437.374 337.926 439.577 348.695 443.566C361.94 448.471 380.872 457.05 389.796 468.205C393.564 472.915 403.544 475.71 408.302 480.901C415.056 488.269 423.922 496.214 431.973 502.097C439.996 507.96 445.997 515.475 452.847 522.325C461.736 531.214 472.191 538.222 481.252 547.072C491.574 557.154 501.217 567.898 511.378 578.059C518.108 584.789 526.207 590.469 532.036 597.964C544.01 613.359 564.975 629.92 585.403 629.92C619.38 629.92 643.717 601.65 647.486 567.73C648.862 555.345 655.388 543.786 656.954 531.255C658.689 517.372 664.061 503.853 668.682 490.477C673.765 475.762 677.886 459.367 680.732 443.996C684.286 424.808 690.406 406.135 692.891 386.756C695.653 365.208 697.294 343.103 702.574 321.983C706.981 304.355 711.437 285.55 714.732 267.756C717.911 250.589 722.664 233.937 726.353 216.971C729.45 202.722 730.758 188.538 735.606 174.686C740.672 160.21 743.457 145.525 749.055 131.218C754.676 116.853 759.677 102.348 765.517 88.0723C770.559 75.7481 779.176 59.0431 776.707 45.4648C775.031 36.2473 774.773 23.6142 764.441 19.8572C745.577 12.9976 721.979 15.8125 703.543 24.161L702.92 24.4431C688.826 30.8254 674.736 37.2062 659.967 42.1293C648.628 45.9088 639.171 53.2666 627.581 56.6546C617.261 59.6711 607.124 62.1561 597.024 65.9078C556.568 80.9341 514.531 91.4261 473.935 106.041C450.289 114.553 426.306 121.451 402.492 129.389C390.82 133.28 379.92 138.54 368.062 142.3C354.908 146.471 341.354 148.746 328.252 153.06C238.286 182.682 150.326 220.197 67.4419 265.927C52.7644 274.025 15.2441 292.009 16.0116 312.73C16.9503 338.074 42.0352 346.915 62.385 352.002Z" fill="white" stroke="black" stroke-width="31" stroke-linecap="round"/>
<path d="M192.963 383.992C213.031 383.992 235.208 370.334 251.957 360.099C266.413 351.265 281.224 340.976 294.987 331.447C329.563 307.51 364.158 282.055 400.817 261.775C425.683 248.019 449.339 233.233 473.662 218.428C483.647 212.35 490.634 205.687 501.679 200.877C513.598 195.687 527.146 188.602 537.308 180.473C544.813 174.469 555.247 171.914 563.95 167.997C572.628 164.092 581.111 159.047 589.642 154.781C599.045 150.08 608.754 145.539 617.976 140.509C624.568 136.913 612.129 144.482 610.152 146.535C599.308 157.796 590.946 172.396 578.329 182.27C570.749 188.202 562.642 197.281 556.444 204.683C548.536 214.13 537.722 221.925 528.956 230.692C512.681 246.966 495.004 261.683 478.842 277.845C461.88 294.807 442.643 312.041 421.328 323.518C403.972 332.864 386.692 346.357 371.955 359.253C364.837 365.48 357.619 371.58 350.915 378.283C346.299 382.899 342.025 389.814 336.643 393.402C327.981 399.176 321.039 412.658 317.084 422.053C313.057 431.615 316.661 439.296 316.661 448.696" stroke="black" stroke-width="31" stroke-linecap="round"/>
</svg>
