<svg width="700" height="688" viewBox="0 0 700 688" fill="none" xmlns="http://www.w3.org/2000/svg">
<path d="M150.413 640.722C175.823 639.663 184.468 640.722 209.881 640.722C217.436 636.312 222.057 620.548 225.802 612.429C232.145 598.675 241.545 586.529 250.97 575.525C288.777 531.381 328.961 489.382 366.98 444.992C406.819 398.475 442.611 347.132 484.745 303.115C502.461 284.607 518.495 264.839 533.209 242.974C549.946 218.102 569.543 196.427 586.122 171.352C600.556 149.519 614.79 132.345 633.883 116.132C645.713 106.086 656.035 92.4014 669.236 84.6945C674.07 81.8724 679.165 80.3624 683.986 77.8603C690.534 74.4623 679.386 70.7592 675.089 67.4724C659.256 55.3602 643.559 44.2563 628.147 31.798C622.587 27.3038 615.238 21 608.129 21C603.395 21 598.278 34.0868 595.487 37.8121C574.771 65.4546 549.945 89.5843 530.048 118.319C485.924 182.041 434.712 239.797 386.88 299.834C361.091 332.204 337.436 365.799 313.599 400.16C294.283 428.003 273.472 453.946 255.77 483.263C241.386 507.085 222.54 525.859 206.837 548.325C192.949 568.194 179.944 592.325 163.524 609.285C154.241 618.874 149.115 635.166 138.238 642.636C136.149 644.071 148.426 640.805 150.413 640.722Z" fill="black" stroke="black" stroke-width="28" stroke-linecap="round"/>
<path d="M85.37 36.9263C68.3641 52.0426 47.7505 64.001 28.1683 75.398C31.3227 77.2405 34.7312 78.7905 36.8374 79.3923C44.5781 81.6039 50.664 90.4527 56.8295 95.2481C69.0755 104.773 79.4084 118.283 88.4033 130.958C113.22 165.927 136.755 202.252 164.511 235.055C207.757 286.164 259.877 330.644 300.871 383.272C327.394 417.322 353.523 450.632 383.184 482.13C405.089 505.392 431.726 524.135 455.155 545.829C489.908 578.008 523.346 611.584 558.011 643.859C565.951 651.252 577.023 664.142 588.068 667.298C597.24 669.919 621.125 647.417 626.949 640.136C632.404 633.318 640.173 629.048 644.873 621.661C648.059 616.655 649.436 611.007 653.697 606.495C655.355 604.739 661.052 601.754 659.626 599.187C651.688 584.899 635.093 572.351 624.468 560.168C568.815 496.36 502.56 444.32 452.673 375.138C402.763 305.923 344.067 240.528 279.5 184.868C252.456 161.554 229.575 131.877 200.497 111.242C179.844 96.585 156.514 82.2873 138.59 64.3637C127.782 53.5554 117.955 39.3855 110.326 26.034C106.748 19.7727 107.974 19.8184 102.742 22.725C95.9204 26.515 91.1273 31.8087 85.37 36.9263Z" fill="white"/>
<path d="M25.8073 76.7726C46.0841 64.9592 67.6791 52.6515 85.37 36.9263C91.1273 31.8087 95.9204 26.515 102.742 22.725C107.974 19.8184 106.748 19.7727 110.326 26.034C117.955 39.3855 127.782 53.5554 138.59 64.3637C156.514 82.2873 179.844 96.585 200.497 111.242C229.575 131.877 252.456 161.554 279.5 184.868C344.067 240.528 402.763 305.923 452.673 375.138C502.56 444.32 568.815 496.36 624.468 560.168C635.093 572.351 651.688 584.899 659.626 599.187C661.052 601.754 655.355 604.739 653.697 606.495C649.436 611.007 648.059 616.655 644.873 621.661C640.173 629.048 632.404 633.318 626.949 640.136C621.125 647.417 597.24 669.919 588.068 667.298C577.023 664.142 565.951 651.252 558.011 643.859C523.346 611.584 489.908 578.008 455.155 545.829C431.726 524.135 405.089 505.392 383.184 482.13C353.523 450.632 327.394 417.322 300.871 383.272C259.877 330.644 207.757 286.164 164.511 235.055C136.755 202.252 113.22 165.927 88.4033 130.958C79.4084 118.283 69.0755 104.773 56.8295 95.2481C50.664 90.4527 44.5781 81.6039 36.8374 79.3923C32.4959 78.1518 22.6214 72.8826 20.8438 69.3273" stroke="black" stroke-width="41" stroke-linecap="round"/>
</svg>
